<?xml version="1.0" standalone="no"?>
<!DOCTYPE svg PUBLIC "-//W3C//DTD SVG 20010904//EN"
 "http://www.w3.org/TR/2001/REC-SVG-20010904/DTD/svg10.dtd">
<svg version="1.0" xmlns="http://www.w3.org/2000/svg"
 width="206.000000pt" height="64.000000pt" viewBox="0 0 206.000000 64.000000"
 preserveAspectRatio="xMidYMid meet">

<g transform="translate(0.000000,64.000000) scale(0.100000,-0.100000)" fill="#ffffff" stroke="none">

<path d="M239 467 c-64 -43 -71 -70 -63 -262 4 -94 11 -176 16 -182 21 -26 54
-13 113 47 l59 60 81 0 c139 0 185 44 185 178 0 82 -15 120 -57 150 -23 16
-53 20 -164 25 -130 6 -138 6 -170 -16z m307 -244 c-45 -39 -146 -23 -146 23
0 13 9 14 54 9 32 -4 62 -3 72 3 13 7 23 7 32 -1 12 -9 9 -15 -12 -34z"/>
<path d="M1537 483 c-4 -3 -7 -26 -7 -49 l0 -43 -39 2 c-100 4 -146 -100 -76
-170 32 -32 40 -35 76 -30 50 7 76 29 89 76 11 39 14 180 4 205 -6 16 -35 22
-47 9z m-19 -155 c16 -16 15 -53 -2 -67 -22 -19 -68 -9 -77 15 -16 45 46 85
79 52z"/>
<path d="M815 393 c-77 -18 -71 -94 9 -120 17 -5 32 -15 34 -23 4 -10 -5 -12
-42 -7 -38 6 -48 4 -53 -10 -9 -23 23 -43 69 -43 41 0 88 34 88 65 0 23 -37
55 -70 62 -17 3 -30 12 -30 20 0 12 8 13 39 8 25 -4 41 -2 46 5 15 25 -45 53
-90 43z"/>
<path d="M1013 388 c-42 -11 -63 -43 -63 -96 0 -59 41 -102 97 -102 83 0 101
53 18 54 -69 1 -68 22 2 32 52 8 58 12 61 35 4 31 -29 75 -60 81 -13 2 -37 1
-55 -4z m56 -52 c9 -11 5 -15 -25 -20 -42 -8 -52 -3 -34 19 16 19 44 19 59 1z"/>
<path d="M1233 392 c-12 -2 -34 -17 -48 -34 -23 -27 -26 -38 -23 -97 3 -58 5
-66 23 -66 17 0 21 8 25 56 11 120 79 120 90 0 4 -48 8 -56 25 -56 18 0 20 8
23 66 3 59 0 70 -22 97 -26 30 -53 40 -93 34z"/>
<path d="M1672 385 c-37 -16 -67 -73 -58 -110 10 -41 45 -74 88 -82 22 -5 46
-16 52 -26 27 -43 -49 -77 -85 -38 -22 23 -49 18 -49 -9 0 -30 48 -60 94 -60
49 0 79 18 95 59 11 24 10 35 -3 63 -15 31 -15 37 0 67 24 48 10 98 -35 128
-39 26 -54 28 -99 8z m76 -57 c28 -28 7 -78 -33 -78 -27 0 -45 18 -45 45 0 27
18 45 45 45 12 0 26 -5 33 -12z"/>
<path d="M1914 391 c-53 -23 -81 -101 -54 -152 12 -22 61 -49 89 -49 56 0 101
49 101 109 0 61 -80 115 -136 92z m70 -67 c19 -18 20 -28 6 -55 -12 -22 -59
-26 -78 -7 -26 26 -1 78 38 78 10 0 26 -7 34 -16z"/>
</g>
</svg>
